<svg width="188" height="36" viewBox="0 0 188 36" fill="none" xmlns="http://www.w3.org/2000/svg">
<path fill-rule="evenodd" clip-rule="evenodd" d="M6.64777 0.444824H10.9087H27.9523H32.2132H41.7016L39.2236 3.23256L58.4286 30.6683L51.4473 35.5553L40.849 20.4148H23.9505L18.9768 26.0103H30.7929V24.59H39.3147V30.2712V34.5321H35.0538H9.48838H0L6.30374 27.4404L22.7248 8.96664H15.1696V10.3869H6.64777V7.54634V4.70573V0.444824ZM37.8663 16.1539L33.4042 9.7794L27.738 16.1539H37.8663Z" fill="url(#paint0_linear_170_23)"/>
<path d="M65.53 22.3583H71.2286V25H61.8693V22.547L67.5301 14.3953H61.8693V11.7535H71.2286V14.2066L65.53 22.3583ZM83.2618 19.5656C83.2618 19.8675 83.2429 20.182 83.2052 20.509H75.9026C75.953 21.1632 76.1605 21.6664 76.5253 22.0186C76.9027 22.3583 77.3619 22.5281 77.9028 22.5281C78.7079 22.5281 79.2677 22.1884 79.5822 21.5091H83.0165C82.8404 22.201 82.5196 22.8237 82.0541 23.3772C81.6013 23.9307 81.0289 24.3647 80.337 24.6792C79.6451 24.9937 78.8715 25.151 78.016 25.151C76.9845 25.151 76.0662 24.9308 75.2611 24.4905C74.456 24.0502 73.827 23.4212 73.3741 22.6036C72.9212 21.7859 72.6948 20.8298 72.6948 19.7354C72.6948 18.6409 72.915 17.6849 73.3552 16.8672C73.8081 16.0495 74.4371 15.4205 75.2422 14.9802C76.0473 14.54 76.9719 14.3198 78.016 14.3198C79.035 14.3198 79.9407 14.5337 80.7333 14.9614C81.5258 15.3891 82.1422 15.9992 82.5825 16.7917C83.0353 17.5842 83.2618 18.5089 83.2618 19.5656ZM79.9596 18.7164C79.9596 18.1629 79.7709 17.7226 79.3935 17.3956C79.0161 17.0685 78.5444 16.9049 77.9783 16.9049C77.4374 16.9049 76.9782 17.0622 76.6008 17.3767C76.236 17.6912 76.0096 18.1378 75.9215 18.7164H79.9596ZM88.1907 15.9615C88.5052 15.4709 88.9392 15.0746 89.4927 14.7727C90.0462 14.4708 90.6941 14.3198 91.4363 14.3198C92.3043 14.3198 93.0905 14.54 93.795 14.9802C94.4995 15.4205 95.053 16.0495 95.4555 16.8672C95.8706 17.6849 96.0782 18.6347 96.0782 19.7165C96.0782 20.7984 95.8706 21.7544 95.4555 22.5847C95.053 23.4024 94.4995 24.0377 93.795 24.4905C93.0905 24.9308 92.3043 25.151 91.4363 25.151C90.7067 25.151 90.0588 25 89.4927 24.6981C88.9392 24.3962 88.5052 24.0062 88.1907 23.5282V30.0193H84.964V14.4708H88.1907V15.9615ZM92.7949 19.7165C92.7949 18.9114 92.5685 18.2824 92.1156 17.8296C91.6753 17.3641 91.1281 17.1314 90.4739 17.1314C89.8324 17.1314 89.2852 17.3641 88.8323 17.8296C88.392 18.295 88.1719 18.9303 88.1719 19.7354C88.1719 20.5405 88.392 21.1758 88.8323 21.6412C89.2852 22.1067 89.8324 22.3394 90.4739 22.3394C91.1155 22.3394 91.6627 22.1067 92.1156 21.6412C92.5685 21.1632 92.7949 20.5216 92.7949 19.7165ZM104.243 14.3575C105.451 14.3575 106.42 14.7601 107.149 15.5652C107.879 16.3577 108.244 17.4522 108.244 18.8485V25H105.036V19.2825C105.036 18.578 104.853 18.0308 104.489 17.6409C104.124 17.2509 103.633 17.0559 103.017 17.0559C102.4 17.0559 101.91 17.2509 101.545 17.6409C101.18 18.0308 100.998 18.578 100.998 19.2825V25H97.771V11.0365H100.998V15.886C101.325 15.4205 101.771 15.0494 102.337 14.7727C102.904 14.4959 103.539 14.3575 104.243 14.3575ZM122.731 22.6602H117.787L116.994 25H113.617L118.409 11.7535H122.146L126.939 25H123.523L122.731 22.6602ZM121.9 20.1694L120.259 15.3199L118.636 20.1694H121.9ZM132.398 14.3198C133.14 14.3198 133.788 14.4708 134.341 14.7727C134.907 15.0746 135.341 15.4709 135.643 15.9615V14.4708H138.87V24.9811C138.87 25.9498 138.675 26.8241 138.285 27.604C137.908 28.3965 137.323 29.0255 136.53 29.491C135.75 29.9564 134.775 30.1891 133.605 30.1891C132.045 30.1891 130.781 29.818 129.812 29.0758C128.844 28.3462 128.29 27.3524 128.152 26.0944H131.341C131.442 26.497 131.681 26.8115 132.058 27.0379C132.435 27.2769 132.901 27.3964 133.454 27.3964C134.121 27.3964 134.649 27.2015 135.039 26.8115C135.442 26.4341 135.643 25.824 135.643 24.9811V23.4904C135.329 23.981 134.895 24.3836 134.341 24.6981C133.788 25 133.14 25.151 132.398 25.151C131.53 25.151 130.743 24.9308 130.039 24.4905C129.334 24.0377 128.775 23.4024 128.36 22.5847C127.957 21.7544 127.756 20.7984 127.756 19.7165C127.756 18.6347 127.957 17.6849 128.36 16.8672C128.775 16.0495 129.334 15.4205 130.039 14.9802C130.743 14.54 131.53 14.3198 132.398 14.3198ZM135.643 19.7354C135.643 18.9303 135.417 18.295 134.964 17.8296C134.524 17.3641 133.983 17.1314 133.341 17.1314C132.7 17.1314 132.152 17.3641 131.699 17.8296C131.259 18.2824 131.039 18.9114 131.039 19.7165C131.039 20.5216 131.259 21.1632 131.699 21.6412C132.152 22.1067 132.7 22.3394 133.341 22.3394C133.983 22.3394 134.524 22.1067 134.964 21.6412C135.417 21.1758 135.643 20.5405 135.643 19.7354ZM151.13 19.5656C151.13 19.8675 151.111 20.182 151.073 20.509H143.771C143.821 21.1632 144.028 21.6664 144.393 22.0186C144.771 22.3583 145.23 22.5281 145.771 22.5281C146.576 22.5281 147.136 22.1884 147.45 21.5091H150.884C150.708 22.201 150.387 22.8237 149.922 23.3772C149.469 23.9307 148.897 24.3647 148.205 24.6792C147.513 24.9937 146.739 25.151 145.884 25.151C144.852 25.151 143.934 24.9308 143.129 24.4905C142.324 24.0502 141.695 23.4212 141.242 22.6036C140.789 21.7859 140.563 20.8298 140.563 19.7354C140.563 18.6409 140.783 17.6849 141.223 16.8672C141.676 16.0495 142.305 15.4205 143.11 14.9802C143.915 14.54 144.84 14.3198 145.884 14.3198C146.903 14.3198 147.809 14.5337 148.601 14.9614C149.394 15.3891 150.01 15.9992 150.45 16.7917C150.903 17.5842 151.13 18.5089 151.13 19.5656ZM147.827 18.7164C147.827 18.1629 147.639 17.7226 147.261 17.3956C146.884 17.0685 146.412 16.9049 145.846 16.9049C145.305 16.9049 144.846 17.0622 144.469 17.3767C144.104 17.6912 143.877 18.1378 143.789 18.7164H147.827ZM159.248 14.3575C160.48 14.3575 161.462 14.7601 162.191 15.5652C162.933 16.3577 163.305 17.4522 163.305 18.8485V25H160.097V19.2825C160.097 18.578 159.914 18.0308 159.549 17.6409C159.185 17.2509 158.694 17.0559 158.078 17.0559C157.461 17.0559 156.971 17.2509 156.606 17.6409C156.241 18.0308 156.059 18.578 156.059 19.2825V25H152.832V14.4708H156.059V15.8671C156.386 15.4017 156.826 15.0369 157.379 14.7727C157.933 14.4959 158.556 14.3575 159.248 14.3575ZM164.905 19.7354C164.905 18.6409 165.125 17.6849 165.566 16.8672C166.019 16.0495 166.641 15.4205 167.434 14.9802C168.239 14.54 169.157 14.3198 170.189 14.3198C171.51 14.3198 172.61 14.6658 173.491 15.3576C174.384 16.0495 174.969 17.0245 175.246 18.2824H171.811C171.522 17.4773 170.962 17.0748 170.132 17.0748C169.541 17.0748 169.069 17.3075 168.717 17.7729C168.365 18.2258 168.189 18.88 168.189 19.7354C168.189 20.5908 168.365 21.2512 168.717 21.7167C169.069 22.1696 169.541 22.396 170.132 22.396C170.962 22.396 171.522 21.9934 171.811 21.1883H175.246C174.969 22.4212 174.384 23.3898 173.491 24.0943C172.598 24.7987 171.497 25.151 170.189 25.151C169.157 25.151 168.239 24.9308 167.434 24.4905C166.641 24.0502 166.019 23.4212 165.566 22.6036C165.125 21.7859 164.905 20.8298 164.905 19.7354ZM187.727 14.4708L181.123 30.0004H177.651L180.066 24.6415L175.783 14.4708H179.387L181.821 21.0563L184.237 14.4708H187.727Z" fill="black"/>
<defs>
<linearGradient id="paint0_linear_170_23" x1="20.8507" y1="0.444824" x2="20.8507" y2="34.5321" gradientUnits="userSpaceOnUse">
<stop stop-color="#006CEA"/>
<stop offset="1" stop-color="#0009EA" stop-opacity="0.48"/>
</linearGradient>
</defs>
</svg>
